<svg id="svg" version="1.1" xmlns="http://www.w3.org/2000/svg" xmlns:xlink="http://www.w3.org/1999/xlink" width="400" height="400" viewBox="0, 0, 400,400"><g id="svgg"><path id="path0" d="M197.435 159.613 C 193.151 161.751,193.200 161.538,193.200 177.952 C 193.200 190.138,193.119 192.024,192.571 192.571 C 192.024 193.119,190.138 193.200,177.952 193.200 C 162.747 193.200,162.761 193.198,160.800 195.487 C 158.444 198.236,158.144 200.611,159.796 203.430 C 161.884 206.992,161.841 206.984,177.982 207.119 C 187.329 207.198,192.341 207.385,192.682 207.668 C 193.088 208.005,193.200 211.163,193.200 222.270 L 193.200 236.442 194.162 237.859 C 197.135 242.234,202.398 242.411,205.768 238.249 L 207.000 236.727 207.123 222.165 L 207.246 207.604 208.123 207.403 C 208.605 207.293,215.224 207.157,222.832 207.101 L 236.664 207.000 238.166 205.854 C 242.409 202.616,242.210 196.764,237.769 194.161 L 236.130 193.200 222.165 193.194 C 214.484 193.191,207.986 193.051,207.724 192.885 C 207.373 192.662,207.214 188.772,207.124 178.191 L 207.000 163.800 206.024 162.359 C 203.966 159.318,200.346 158.160,197.435 159.613 " stroke="none" fill="#fbfafa" fill-rule="evenodd"></path><path id="path1" d="M192.579 179.000 C 192.579 186.260,192.633 189.286,192.699 185.725 C 192.765 182.164,192.766 176.224,192.699 172.525 C 192.633 168.826,192.579 171.740,192.579 179.000 M207.945 192.506 C 208.114 192.674,214.090 192.764,221.226 192.705 L 234.200 192.599 220.920 192.400 C 213.615 192.290,207.777 192.338,207.945 192.506 M172.525 192.699 C 176.224 192.766,182.164 192.765,185.725 192.699 C 189.286 192.633,186.260 192.579,179.000 192.579 C 171.740 192.579,168.826 192.633,172.525 192.699 M158.501 200.200 C 158.505 201.080,158.587 201.393,158.683 200.895 C 158.779 200.398,158.775 199.678,158.675 199.295 C 158.575 198.913,158.496 199.320,158.501 200.200 M192.579 221.200 C 192.579 228.570,192.633 231.585,192.699 227.900 C 192.765 224.215,192.765 218.185,192.699 214.500 C 192.633 210.815,192.579 213.830,192.579 221.200 " stroke="none" fill="#ec8c94" fill-rule="evenodd"></path><path id="path2" d="M194.000 121.200 C 194.000 121.435,192.600 121.600,190.600 121.600 C 188.600 121.600,187.200 121.765,187.200 122.000 C 187.200 122.222,186.133 122.400,184.800 122.400 C 183.467 122.400,182.400 122.578,182.400 122.800 C 182.400 123.020,181.781 123.200,181.024 123.200 C 180.267 123.200,179.536 123.380,179.400 123.600 C 179.264 123.820,178.533 124.000,177.776 124.000 C 177.019 124.000,176.400 124.169,176.400 124.375 C 176.400 124.582,175.588 124.873,174.595 125.022 C 173.602 125.171,172.692 125.452,172.571 125.646 C 172.451 125.841,171.924 126.000,171.400 126.000 C 170.876 126.000,170.336 126.180,170.200 126.400 C 170.064 126.620,169.603 126.800,169.176 126.800 C 168.749 126.800,168.400 126.980,168.400 127.200 C 168.400 127.420,168.040 127.600,167.600 127.600 C 167.160 127.600,166.800 127.780,166.800 128.000 C 166.800 128.220,166.528 128.400,166.196 128.400 C 165.439 128.400,161.847 130.051,161.667 130.481 C 161.593 130.657,161.278 130.800,160.967 130.800 C 160.655 130.800,160.400 130.980,160.400 131.200 C 160.400 131.420,160.170 131.600,159.888 131.600 C 159.607 131.600,159.117 131.960,158.800 132.400 C 158.483 132.840,157.903 133.200,157.512 133.200 C 157.120 133.200,156.800 133.380,156.800 133.600 C 156.800 133.820,156.512 134.000,156.160 134.000 C 155.809 134.000,155.017 134.540,154.400 135.200 C 153.783 135.860,153.063 136.400,152.800 136.400 C 152.537 136.400,151.817 136.940,151.200 137.600 C 150.583 138.260,149.864 138.800,149.602 138.800 C 148.979 138.800,138.800 148.979,138.800 149.602 C 138.800 149.864,138.260 150.583,137.600 151.200 C 136.940 151.817,136.400 152.537,136.400 152.800 C 136.400 153.063,135.860 153.783,135.200 154.400 C 134.540 155.017,134.000 155.769,134.000 156.072 C 134.000 156.375,133.640 156.883,133.200 157.200 C 132.760 157.517,132.400 158.097,132.400 158.488 C 132.400 158.880,132.220 159.200,132.000 159.200 C 131.780 159.200,131.600 159.470,131.600 159.800 C 131.600 160.130,131.420 160.400,131.200 160.400 C 130.980 160.400,130.800 160.655,130.800 160.967 C 130.800 161.278,130.657 161.593,130.481 161.667 C 130.051 161.847,128.400 165.439,128.400 166.196 C 128.400 166.528,128.220 166.800,128.000 166.800 C 127.780 166.800,127.600 167.160,127.600 167.600 C 127.600 168.040,127.420 168.400,127.200 168.400 C 126.980 168.400,126.800 168.749,126.800 169.176 C 126.800 169.603,126.620 170.064,126.400 170.200 C 126.180 170.336,126.000 170.776,126.000 171.178 C 126.000 171.580,125.731 172.424,125.402 173.054 C 125.074 173.684,124.804 174.695,124.802 175.300 C 124.801 175.905,124.620 176.400,124.400 176.400 C 124.180 176.400,124.000 177.019,124.000 177.776 C 124.000 178.533,123.820 179.264,123.600 179.400 C 123.380 179.536,123.200 180.267,123.200 181.024 C 123.200 181.781,123.020 182.400,122.800 182.400 C 122.578 182.400,122.400 183.467,122.400 184.800 C 122.400 186.133,122.222 187.200,122.000 187.200 C 121.769 187.200,121.600 188.459,121.600 190.176 C 121.600 191.813,121.420 193.264,121.200 193.400 C 120.961 193.548,120.800 196.196,120.800 200.000 C 120.800 203.804,120.961 206.452,121.200 206.600 C 121.420 206.736,121.600 208.187,121.600 209.824 C 121.600 211.541,121.769 212.800,122.000 212.800 C 122.222 212.800,122.400 213.867,122.400 215.200 C 122.400 216.533,122.578 217.600,122.800 217.600 C 123.020 217.600,123.200 218.320,123.200 219.200 C 123.200 220.080,123.380 220.800,123.600 220.800 C 123.820 220.800,124.000 221.430,124.000 222.200 C 124.000 222.970,124.180 223.600,124.400 223.600 C 124.620 223.600,124.800 223.989,124.800 224.465 C 124.800 225.580,126.095 229.759,126.494 229.933 C 126.662 230.007,126.800 230.324,126.800 230.638 C 126.800 231.364,130.789 239.600,131.142 239.600 C 131.286 239.600,131.660 240.185,131.972 240.900 C 132.284 241.615,132.868 242.491,133.270 242.847 C 133.671 243.203,134.000 243.748,134.000 244.059 C 134.000 244.369,134.360 244.883,134.800 245.200 C 135.240 245.517,135.600 246.025,135.600 246.328 C 135.600 246.631,136.140 247.383,136.800 248.000 C 137.460 248.617,138.000 249.322,138.000 249.568 C 138.000 250.501,149.521 262.000,150.455 262.000 C 150.688 262.000,151.383 262.540,152.000 263.200 C 152.617 263.860,153.337 264.400,153.600 264.400 C 153.863 264.400,154.583 264.940,155.200 265.600 C 155.817 266.260,156.609 266.800,156.960 266.800 C 157.312 266.800,157.600 266.980,157.600 267.200 C 157.600 267.420,157.836 267.600,158.125 267.600 C 158.413 267.600,159.036 267.960,159.508 268.400 C 159.980 268.840,160.554 269.200,160.783 269.200 C 161.012 269.200,161.200 269.380,161.200 269.600 C 161.200 269.820,161.560 270.000,162.000 270.000 C 162.440 270.000,162.800 270.180,162.800 270.400 C 162.800 270.620,163.160 270.800,163.600 270.800 C 164.040 270.800,164.400 270.980,164.400 271.200 C 164.400 271.420,164.760 271.600,165.200 271.600 C 165.640 271.600,166.000 271.780,166.000 272.000 C 166.000 272.220,166.236 272.400,166.525 272.400 C 166.814 272.400,167.795 272.760,168.706 273.200 C 169.616 273.640,170.629 274.000,170.957 274.000 C 171.285 274.000,171.651 274.159,171.771 274.354 C 171.892 274.548,172.802 274.829,173.795 274.978 C 174.788 275.127,175.600 275.418,175.600 275.625 C 175.600 275.831,176.230 276.000,177.000 276.000 C 177.770 276.000,178.400 276.180,178.400 276.400 C 178.400 276.620,179.120 276.800,180.000 276.800 C 180.880 276.800,181.600 276.980,181.600 277.200 C 181.600 277.420,182.500 277.600,183.600 277.600 C 184.700 277.600,185.600 277.780,185.600 278.000 C 185.600 278.229,186.800 278.400,188.400 278.400 C 190.000 278.400,191.200 278.571,191.200 278.800 C 191.200 279.055,194.533 279.200,200.400 279.200 C 206.267 279.200,209.600 279.055,209.600 278.800 C 209.600 278.578,210.667 278.400,212.000 278.400 C 213.333 278.400,214.400 278.222,214.400 278.000 C 214.400 277.780,215.300 277.600,216.400 277.600 C 217.500 277.600,218.400 277.420,218.400 277.200 C 218.400 276.980,219.120 276.800,220.000 276.800 C 220.880 276.800,221.600 276.620,221.600 276.400 C 221.600 276.180,222.119 276.000,222.754 276.000 C 223.389 276.000,224.424 275.731,225.054 275.402 C 225.684 275.074,226.695 274.804,227.300 274.802 C 227.905 274.801,228.400 274.620,228.400 274.400 C 228.400 274.180,228.839 274.000,229.376 274.000 C 229.913 274.000,230.464 273.820,230.600 273.600 C 230.736 273.380,231.197 273.200,231.624 273.200 C 232.051 273.200,232.400 273.020,232.400 272.800 C 232.400 272.580,232.760 272.400,233.200 272.400 C 233.640 272.400,234.000 272.220,234.000 272.000 C 234.000 271.780,234.360 271.600,234.800 271.600 C 235.240 271.600,235.600 271.420,235.600 271.200 C 235.600 270.980,235.960 270.800,236.400 270.800 C 236.840 270.800,237.200 270.620,237.200 270.400 C 237.200 270.180,237.560 270.000,238.000 270.000 C 238.440 270.000,238.800 269.820,238.800 269.600 C 238.800 269.380,239.036 269.200,239.325 269.200 C 239.613 269.200,240.236 268.840,240.708 268.400 C 241.180 267.960,241.754 267.600,241.983 267.600 C 242.212 267.600,242.400 267.420,242.400 267.200 C 242.400 266.980,242.720 266.800,243.112 266.800 C 243.503 266.800,244.083 266.440,244.400 266.000 C 244.717 265.560,245.225 265.200,245.528 265.200 C 245.831 265.200,246.583 264.660,247.200 264.000 C 247.817 263.340,248.523 262.800,248.769 262.800 C 249.016 262.800,250.207 261.810,251.417 260.600 C 252.627 259.390,253.768 258.400,253.952 258.400 C 254.387 258.400,258.400 254.387,258.400 253.952 C 258.400 253.768,259.390 252.627,260.600 251.417 C 261.810 250.207,262.800 249.016,262.800 248.769 C 262.800 248.523,263.340 247.817,264.000 247.200 C 264.660 246.583,265.200 245.831,265.200 245.528 C 265.200 245.225,265.560 244.717,266.000 244.400 C 266.440 244.083,266.800 243.503,266.800 243.112 C 266.800 242.720,266.980 242.400,267.200 242.400 C 267.420 242.400,267.600 242.212,267.600 241.983 C 267.600 241.754,267.960 241.180,268.400 240.708 C 268.840 240.236,269.200 239.613,269.200 239.325 C 269.200 239.036,269.380 238.800,269.600 238.800 C 269.820 238.800,270.000 238.440,270.000 238.000 C 270.000 237.560,270.180 237.200,270.400 237.200 C 270.620 237.200,270.800 236.840,270.800 236.400 C 270.800 235.960,270.980 235.600,271.200 235.600 C 271.420 235.600,271.600 235.240,271.600 234.800 C 271.600 234.360,271.780 234.000,272.000 234.000 C 272.220 234.000,272.400 233.640,272.400 233.200 C 272.400 232.760,272.541 232.400,272.713 232.400 C 272.885 232.400,273.271 231.545,273.571 230.500 C 273.871 229.455,274.250 228.420,274.413 228.200 C 274.576 227.980,274.836 227.035,274.990 226.100 C 275.144 225.165,275.434 224.400,275.635 224.400 C 275.836 224.400,276.000 223.781,276.000 223.024 C 276.000 222.267,276.180 221.536,276.400 221.400 C 276.620 221.264,276.800 220.533,276.800 219.776 C 276.800 219.019,276.980 218.400,277.200 218.400 C 277.420 218.400,277.600 217.500,277.600 216.400 C 277.600 215.300,277.780 214.400,278.000 214.400 C 278.229 214.400,278.400 213.200,278.400 211.600 C 278.400 210.000,278.571 208.800,278.800 208.800 C 279.055 208.800,279.200 205.600,279.200 200.000 C 279.200 194.400,279.055 191.200,278.800 191.200 C 278.578 191.200,278.400 190.133,278.400 188.800 C 278.400 187.467,278.222 186.400,278.000 186.400 C 277.780 186.400,277.600 185.500,277.600 184.400 C 277.600 183.300,277.420 182.400,277.200 182.400 C 276.980 182.400,276.800 181.680,276.800 180.800 C 276.800 179.920,276.620 179.200,276.400 179.200 C 276.180 179.200,276.000 178.480,276.000 177.600 C 276.000 176.720,275.820 176.000,275.600 176.000 C 275.380 176.000,275.200 175.644,275.200 175.208 C 275.200 173.978,273.352 168.770,272.010 166.220 C 271.345 164.954,270.800 163.667,270.800 163.359 C 270.800 163.052,270.664 162.800,270.498 162.800 C 270.331 162.800,269.936 162.215,269.620 161.500 C 269.303 160.785,268.720 159.851,268.322 159.425 C 267.925 158.998,267.600 158.453,267.600 158.213 C 267.600 157.973,267.240 157.517,266.800 157.200 C 266.360 156.883,266.000 156.343,266.000 156.000 C 266.000 155.657,265.640 155.117,265.200 154.800 C 264.760 154.483,264.400 153.975,264.400 153.672 C 264.400 153.369,263.860 152.617,263.200 152.000 C 262.540 151.383,262.000 150.691,262.000 150.461 C 262.000 150.028,258.019 145.629,255.651 143.444 C 254.909 142.760,253.338 141.255,252.160 140.100 C 250.981 138.945,249.816 138.000,249.569 138.000 C 249.323 138.000,248.617 137.460,248.000 136.800 C 247.383 136.140,246.631 135.600,246.328 135.600 C 246.025 135.600,245.517 135.240,245.200 134.800 C 244.883 134.360,244.369 134.000,244.059 134.000 C 243.748 134.000,243.203 133.671,242.847 133.270 C 242.491 132.868,241.615 132.284,240.900 131.972 C 240.185 131.660,239.600 131.286,239.600 131.142 C 239.600 130.787,231.361 126.800,230.628 126.800 C 230.308 126.800,229.936 126.620,229.800 126.400 C 229.664 126.180,229.224 126.000,228.822 126.000 C 228.420 126.000,227.576 125.731,226.946 125.402 C 226.316 125.074,225.305 124.804,224.700 124.802 C 224.095 124.801,223.600 124.620,223.600 124.400 C 223.600 124.180,222.970 124.000,222.200 124.000 C 221.430 124.000,220.800 123.820,220.800 123.600 C 220.800 123.380,220.080 123.200,219.200 123.200 C 218.320 123.200,217.600 123.020,217.600 122.800 C 217.600 122.578,216.533 122.400,215.200 122.400 C 213.867 122.400,212.800 122.222,212.800 122.000 C 212.800 121.765,211.400 121.600,209.400 121.600 C 207.400 121.600,206.000 121.435,206.000 121.200 C 206.000 120.951,203.733 120.800,200.000 120.800 C 196.267 120.800,194.000 120.951,194.000 121.200 M202.917 158.900 C 203.509 159.175,203.995 159.535,203.997 159.700 C 203.999 159.865,204.266 160.000,204.591 160.000 C 204.916 160.000,205.497 160.495,205.882 161.100 C 206.267 161.705,206.677 162.290,206.793 162.400 C 207.789 163.343,208.000 166.192,208.000 178.718 L 208.000 191.979 221.100 192.126 C 237.247 192.308,238.162 192.497,240.663 196.178 C 243.201 199.914,240.535 207.200,236.629 207.200 C 236.309 207.200,235.936 207.380,235.800 207.600 C 235.643 207.854,230.529 208.000,221.776 208.000 L 208.000 208.000 208.000 221.776 C 208.000 230.529,207.854 235.643,207.600 235.800 C 207.380 235.936,207.200 236.309,207.200 236.629 C 207.200 237.617,205.534 239.815,204.047 240.790 C 200.902 242.852,193.600 241.023,193.600 238.173 C 193.600 237.858,193.461 237.600,193.291 237.600 C 192.368 237.600,192.000 232.784,192.000 220.688 L 192.000 208.000 178.224 208.000 C 169.471 208.000,164.357 207.854,164.200 207.600 C 164.064 207.380,163.603 207.200,163.176 207.200 C 162.749 207.200,162.400 207.020,162.400 206.800 C 162.400 206.580,162.132 206.400,161.804 206.400 C 159.084 206.400,157.268 198.718,159.400 196.238 C 159.950 195.599,160.400 194.962,160.400 194.824 C 160.400 194.401,162.917 193.022,164.400 192.633 C 165.170 192.431,171.695 192.201,178.900 192.122 L 192.000 191.979 192.018 179.289 C 192.036 166.209,192.225 164.289,193.739 161.800 C 195.439 159.006,200.025 157.557,202.917 158.900 " stroke="none" fill="#e42444" fill-rule="evenodd"></path><path id="path3" d="M203.200 159.873 C 204.190 160.459,205.123 161.132,205.273 161.369 C 206.177 162.798,206.807 163.309,206.128 162.063 C 205.476 160.865,202.703 158.794,201.765 158.804 C 201.564 158.806,202.210 159.287,203.200 159.873 M207.124 178.124 C 207.214 188.757,207.373 192.662,207.724 192.885 C 207.986 193.051,214.410 193.149,222.000 193.102 L 235.800 193.016 221.800 192.808 L 207.800 192.600 207.600 178.333 C 207.490 170.486,207.310 163.976,207.200 163.866 C 207.090 163.756,207.056 170.172,207.124 178.124 M192.800 177.951 C 192.800 189.105,192.693 191.991,192.265 192.346 C 191.903 192.647,187.303 192.825,177.965 192.900 L 164.200 193.011 178.071 193.105 C 190.232 193.188,192.020 193.122,192.571 192.571 C 193.181 191.962,193.600 164.000,193.000 164.000 C 192.890 164.000,192.800 170.278,192.800 177.951 M236.433 193.331 C 237.113 193.863,239.600 195.225,239.600 195.065 C 239.600 194.806,237.005 193.200,236.586 193.200 C 236.410 193.200,236.342 193.259,236.433 193.331 M160.600 195.200 C 159.968 195.860,159.619 196.390,159.825 196.378 C 160.178 196.357,162.239 194.000,161.905 194.000 C 161.820 194.000,161.232 194.540,160.600 195.200 M240.255 196.600 C 241.180 198.179,241.200 198.203,241.200 197.711 C 241.200 197.479,240.829 196.864,240.376 196.344 L 239.553 195.400 240.255 196.600 M241.314 200.200 C 241.317 201.300,241.395 201.703,241.487 201.095 C 241.579 200.486,241.577 199.586,241.482 199.095 C 241.387 198.603,241.311 199.100,241.314 200.200 M159.954 204.313 C 160.487 205.309,162.746 206.988,163.090 206.644 C 163.224 206.510,163.129 206.400,162.880 206.400 C 162.631 206.400,161.770 205.743,160.968 204.941 C 160.156 204.129,159.706 203.851,159.954 204.313 M238.600 205.468 C 237.720 206.257,237.360 206.716,237.800 206.488 C 238.541 206.104,240.751 203.979,240.370 204.017 C 240.276 204.026,239.480 204.679,238.600 205.468 M164.313 207.272 C 164.691 207.421,171.030 207.559,178.400 207.578 C 185.770 207.597,192.023 207.754,192.295 207.926 C 192.669 208.164,192.816 211.652,192.900 222.220 L 193.011 236.200 193.105 222.149 C 193.180 211.050,193.091 208.008,192.682 207.668 C 192.341 207.385,187.304 207.198,177.895 207.119 C 170.047 207.054,163.935 207.122,164.313 207.272 M221.733 207.190 C 213.996 207.305,207.570 207.496,207.452 207.614 C 207.335 207.732,207.185 214.242,207.119 222.081 C 207.054 229.920,207.090 236.244,207.200 236.134 C 207.310 236.024,207.490 229.604,207.600 221.867 L 207.800 207.800 222.067 207.600 C 229.914 207.490,236.469 207.265,236.634 207.100 C 236.799 206.935,236.678 206.840,236.367 206.890 C 236.055 206.939,229.470 207.074,221.733 207.190 M193.883 237.938 C 194.547 239.177,195.740 240.262,197.200 240.953 C 197.530 241.109,197.354 240.914,196.809 240.519 C 195.555 239.610,194.789 238.843,193.883 237.591 C 193.193 236.638,193.193 236.651,193.883 237.938 M205.226 238.907 C 204.087 240.311,204.042 240.429,204.963 239.600 C 205.920 238.738,207.056 237.186,206.714 237.207 C 206.651 237.211,205.982 237.976,205.226 238.907 M198.900 241.487 C 199.505 241.578,200.495 241.578,201.100 241.487 C 201.705 241.395,201.210 241.320,200.000 241.320 C 198.790 241.320,198.295 241.395,198.900 241.487 " stroke="none" fill="#eca4a4" fill-rule="evenodd"></path><path id="path4" d="M197.462 158.700 C 197.360 158.865,198.502 159.000,200.000 159.000 C 201.498 159.000,202.640 158.865,202.538 158.700 C 202.436 158.535,201.294 158.400,200.000 158.400 C 198.706 158.400,197.564 158.535,197.462 158.700 M204.800 160.454 C 205.130 160.754,205.659 161.270,205.975 161.600 C 206.421 162.065,206.414 161.980,205.941 161.222 C 205.606 160.684,205.077 160.168,204.766 160.076 C 204.310 159.941,204.317 160.015,204.800 160.454 M207.515 177.933 C 207.579 185.554,207.761 191.921,207.919 192.079 C 208.078 192.238,214.175 192.420,221.467 192.484 C 228.759 192.548,234.517 192.468,234.263 192.306 C 234.008 192.144,227.995 192.009,220.900 192.006 L 208.000 192.000 207.994 178.500 C 207.991 171.075,207.856 164.792,207.694 164.537 C 207.532 164.283,207.452 170.311,207.515 177.933 M192.256 165.684 C 192.121 166.188,192.008 172.315,192.005 179.300 L 192.000 192.000 179.100 192.006 C 170.517 192.010,165.999 192.157,165.600 192.444 C 165.101 192.803,165.123 192.835,165.733 192.638 C 166.136 192.507,172.294 192.400,179.418 192.400 L 192.370 192.400 192.485 178.700 C 192.548 171.165,192.578 164.948,192.551 164.884 C 192.524 164.820,192.391 165.180,192.256 165.684 M158.885 196.813 C 158.618 197.240,158.407 197.907,158.416 198.295 C 158.425 198.693,158.688 198.408,159.022 197.639 C 159.690 196.101,159.614 195.645,158.885 196.813 M164.262 207.700 C 164.364 207.865,170.647 208.000,178.224 208.000 L 192.000 208.000 192.028 221.100 C 192.044 228.305,192.179 234.509,192.328 234.888 C 192.620 235.626,192.500 208.930,192.208 208.110 C 192.075 207.739,188.640 207.593,178.054 207.510 C 170.366 207.450,164.159 207.535,164.262 207.700 M221.800 207.592 L 207.800 207.800 207.600 221.862 C 207.490 229.596,207.535 235.841,207.700 235.739 C 207.865 235.636,208.000 229.353,208.000 221.776 L 208.000 208.000 221.776 208.000 C 230.529 208.000,235.643 207.854,235.800 207.600 C 235.936 207.380,235.992 207.241,235.924 207.292 C 235.856 207.343,229.500 207.478,221.800 207.592 M193.632 238.273 C 193.599 238.755,196.821 241.600,197.399 241.600 C 197.573 241.600,196.896 240.974,195.894 240.210 C 194.892 239.445,193.981 238.590,193.868 238.310 C 193.727 237.958,193.653 237.947,193.632 238.273 " stroke="none" fill="#ec848c" fill-rule="evenodd"></path></g></svg>